# Aspose.3D Wavefront OBJ Exporter
# Copyright 2004-2023 Aspose Pty Ltd.
# File created: 01/03/2024 00:01:10

mtllib material.lib

#
# object Magma Cube Core
#

v -3 -2.99999951123790528 -3.00000048876201486
v 3 -2.99999951123790528 -3.00000048876201486
v -3 3.00000048876201486 -2.99999951123790528
v 3 3.00000048876201486 -2.99999951123790528
v -3 -3.00000048876201486 2.99999951123790528
v 3 -3.00000048876201486 2.99999951123790528
v -3 2.99999951123790528 3.00000048876201486
v 3 2.99999951123790528 3.00000048876201486
# 8 vertices

vn 0 1.6292068494294582E-07 -0.99999999999998672
vn 0 1.6292068494294582E-07 -0.99999999999998672
vn 0 1.6292068494294582E-07 -0.99999999999998672
vn 0 1.6292068494294582E-07 -0.99999999999998672
vn 0 1.6292068494294582E-07 -0.99999999999998672
vn 0 1.6292068494294582E-07 -0.99999999999998672
vn 0 -1.6292068494294582E-07 0.99999999999998672
vn 0 -1.6292068494294582E-07 0.99999999999998672
vn 0 -1.6292068494294582E-07 0.99999999999998672
vn 0 -1.6292068494294582E-07 0.99999999999998672
vn 0 -1.6292068494294582E-07 0.99999999999998672
vn 0 -1.6292068494294582E-07 0.99999999999998672
vn 0 -0.99999999999998672 -1.6292068494294582E-07
vn 0 -0.99999999999998672 -1.6292068494294582E-07
vn 0 -0.99999999999998672 -1.6292068494294582E-07
vn 0 -0.99999999999998672 -1.6292068494294582E-07
vn 0 -0.99999999999998672 -1.6292068494294582E-07
vn 0 -0.99999999999998672 -1.6292068494294582E-07
vn 1 0 0
vn 1 0 0
vn 1 0 0
vn 1 0 0
vn 1 0 0
vn 1 0 0
vn 0 0.99999999999998672 1.6292068494294582E-07
vn 0 0.99999999999998672 1.6292068494294582E-07
vn 0 0.99999999999998672 1.6292068494294582E-07
vn 0 0.99999999999998672 1.6292068494294582E-07
vn 0 0.99999999999998672 1.6292068494294582E-07
vn 0 0.99999999999998672 1.6292068494294582E-07
vn -1 0 0
vn -1 0 0
vn -1 0 0
vn -1 0 0
vn -1 0 0
vn -1 0 0
# 36 vertex normals

vt 0.09370988607406616 0.75 0
vt 0.1875 0.75 0
vt 0.09370989352464676 0.5625 0
vt 0.09370989352464676 0.65633386373519896 0
vt 0.1875 0.75 0
vt 0.09370988607406616 0.5625 0
vt 0.09370988607406616 0.65633386373519896 0
vt 0.1875 0.65633386373519896 0
vt 0.09370988607406616 0.65633386373519896 0
vt 0.1875 0.5625 0
vt 0.1875 0.65633386373519896 0
vt 0 0.65633386373519896 0
vt 0 0.5625 0
vt 0.28117159008979796 0.65633386373519896 0
vt 0.28117159008979796 0.5625 0
vt 0.28117159008979796 0.75 0
vt 0.375 0.65633386373519896 0
vt 0.375 0.5625 0
vt 0.28117159008979796 0.65633386373519896 0
vt 0.1875 0.65633386373519896 0
vt 0.28117159008979796 0.65633386373519896 0
vt 0.28117159008979796 0.5625 0
vt 0.1875 0.65633386373519896 0
vt 0.1875 0.5625 0
# 24 texture coords

g Magma Cube Core
usemtl Magma Cube
s 1
f 1/18/1 3/17/2 4/21/3
f 4/21/4 2/22/5 1/18/6
f 5/6/7 6/10/8 8/11/9
f 8/11/10 7/9/11 5/6/12
f 1/2/13 2/16/14 6/19/15
f 6/19/16 5/20/17 1/2/18
f 2/15/19 4/14/20 8/23/21
f 8/23/22 6/24/23 2/15/24
f 4/5/25 3/1/26 7/7/27
f 7/7/28 8/8/29 4/5/30
f 3/12/31 1/13/32 5/3/33
f 5/3/34 7/4/35 3/12/36
#12 polygons


#
# object Magma Cube Layer 2
#

v -4 3.00000065168280194 -4.0000001390708384
v 4 3.00000065168280194 -4.0000001390708384
v -4 4.00000065168263319 -3.99999902247583712
v 4 4.00000065168263319 -3.99999902247583712
v -4 2.9999993483173224 3.99999986092905504
v 4 2.9999993483173224 3.99999986092905504
v -4 3.99999934831730912 4.00000002384973996
v 4 3.99999934831730912 4.00000002384973996
# 8 vertices

vn 0 1.1165950013491832E-06 -0.99999999999983136
vn 0 1.1165950013491832E-06 -0.99999999999983136
vn 0 1.1165950013491832E-06 -0.99999999999983136
vn 0 1.1165950013491832E-06 -0.99999999999983136
vn 0 -1.6292068494294582E-07 0.99999999999998672
vn 0 -1.6292068494294582E-07 0.99999999999998672
vn 0 -1.6292068494294582E-07 0.99999999999998672
vn 0 -1.6292068494294582E-07 0.99999999999998672
vn 0 -0.99999999999998672 -1.6292068494294582E-07
vn 0 -0.99999999999998672 -1.6292068494294582E-07
vn 0 -0.99999999999998672 -1.6292068494294582E-07
vn 0 -0.99999999999998672 -1.6292068494294582E-07
vn 1 0 0
vn 1 0 0
vn 1 0 0
vn 1 0 0
vn 0 0.99999999999998672 1.6292068494294582E-07
vn 0 0.99999999999998672 1.6292068494294582E-07
vn 0 0.99999999999998672 1.6292068494294582E-07
vn 0 0.99999999999998672 1.6292068494294582E-07
vn -1 0 0
vn -1 0 0
vn -1 0 0
vn -1 0 0
# 24 vertex normals

vt 0.125 1 0
vt 0.25 1 0
vt 0.125 0.84381705522537232 0
vt 0.125 0.85909152030944832 0
vt 0.25 1 0
vt 0.125 0.84381705522537232 0
vt 0.125 0.875 0
vt 0.25 0.875 0
vt 0.125 0.85909152030944832 0
vt 0.25 0.84381705522537232 0
vt 0.25 0.85909152030944832 0
vt 0 0.85909152030944832 0
vt 0 0.84381705522537232 0
vt 0.375 0.85909152030944832 0
vt 0.375 0.84381705522537232 0
vt 0.375 1 0
vt 0.5 0.85909152030944832 0
vt 0.5 0.84381705522537232 0
vt 0.375 0.875 0
vt 0.25 0.875 0
vt 0.375 0.85909152030944832 0
vt 0.375 0.84381705522537232 0
vt 0.25 0.85909152030944832 0
vt 0.25 0.84381705522537232 0
# 24 texture coords

g Magma Cube Layer 2
usemtl Magma Cube
s 2
f 9/42/37 11/41/38 12/45/39 10/46/40
f 13/30/41 14/34/42 16/35/43 15/33/44
f 9/26/45 10/40/46 14/43/47 13/44/48
f 10/39/49 12/38/50 16/47/51 14/48/52
f 12/29/53 11/25/54 15/31/55 16/32/56
f 11/36/57 9/37/58 13/27/59 15/28/60
#6 polygons


#
# object Magma Cube Layer 1
#

v -4 2.00000065168276464 -3.99999998807507856
v 4 2.00000065168276464 -3.99999998807507856
v -4 3.00000065168259588 -3.99999887148007712
v 4 3.00000065168259588 -3.99999887148007712
v -4 1.99999934831728512 4.00000001192481491
v 4 1.99999934831728512 4.00000001192481491
v -4 2.99999934831727184 4.00000017484549985
v 4 2.99999934831727184 4.00000017484549985
# 8 vertices

vn 0 1.1165950013491832E-06 -0.99999999999983136
vn 0 1.1165950013491832E-06 -0.99999999999983136
vn 0 1.1165950013491832E-06 -0.99999999999983136
vn 0 1.1165950013491832E-06 -0.99999999999983136
vn 0 -1.6292068494294582E-07 0.99999999999998672
vn 0 -1.6292068494294582E-07 0.99999999999998672
vn 0 -1.6292068494294582E-07 0.99999999999998672
vn 0 -1.6292068494294582E-07 0.99999999999998672
vn 0 -0.99999999999998672 -1.6292068494294582E-07
vn 0 -0.99999999999998672 -1.6292068494294582E-07
vn 0 -0.99999999999998672 -1.6292068494294582E-07
vn 0 -0.99999999999998672 -1.6292068494294582E-07
vn 1 0 0
vn 1 0 0
vn 1 0 0
vn 1 0 0
vn 0 0.99999999999998672 1.6292068494294582E-07
vn 0 0.99999999999998672 1.6292068494294582E-07
vn 0 0.99999999999998672 1.6292068494294582E-07
vn 0 0.99999999999998672 1.6292068494294582E-07
vn -1 0 0
vn -1 0 0
vn -1 0 0
vn -1 0 0
# 24 vertex normals

vt 0.125 1 0
vt 0.25 1 0
vt 0.125 0.85967588424682624 0
vt 0.125 0.87495034933090208 0
vt 0.25 1 0
vt 0.125 0.85967588424682624 0
vt 0.125 0.875 0
vt 0.25 0.875 0
vt 0.125 0.87495034933090208 0
vt 0.25 0.85967588424682624 0
vt 0.25 0.87495034933090208 0
vt 0 0.87495034933090208 0
vt 0 0.85967588424682624 0
vt 0.375 0.87495034933090208 0
vt 0.375 0.85967588424682624 0
vt 0.375 1 0
vt 0.5 0.87495034933090208 0
vt 0.5 0.85967588424682624 0
vt 0.375 0.875 0
vt 0.25 0.875 0
vt 0.375 0.87495034933090208 0
vt 0.375 0.85967588424682624 0
vt 0.25 0.87495034933090208 0
vt 0.25 0.85967588424682624 0
# 24 texture coords

g Magma Cube Layer 1
usemtl Magma Cube
s 4
f 17/66/61 19/65/62 20/69/63 18/70/64
f 21/54/65 22/58/66 24/59/67 23/57/68
f 17/50/69 18/64/70 22/67/71 21/68/72
f 18/63/73 20/62/74 24/71/75 22/72/76
f 20/53/77 19/49/78 23/55/79 24/56/80
f 19/60/81 17/61/82 21/51/83 23/52/84
#6 polygons


#
# object Magma Cube Layer 4
#

v -4 6.516828108260597E-07 -4.00000043312570952
v 4 6.516828108260597E-07 -4.00000043312570952
v -4 1.00000065168264207 -3.99999931653070816
v 4 1.00000065168264207 -3.99999931653070816
v -4 -6.516826687175126E-07 3.99999956687418384
v 4 -6.516826687175126E-07 3.99999956687418384
v -4 0.99999934831731792 3.9999997297948688
v 4 0.99999934831731792 3.9999997297948688
# 8 vertices

vn 0 1.1165950013491832E-06 -0.99999999999983136
vn 0 1.1165950013491832E-06 -0.99999999999983136
vn 0 1.1165950013491832E-06 -0.99999999999983136
vn 0 1.1165950013491832E-06 -0.99999999999983136
vn 0 -1.6292068494294582E-07 0.99999999999998672
vn 0 -1.6292068494294582E-07 0.99999999999998672
vn 0 -1.6292068494294582E-07 0.99999999999998672
vn 0 -1.6292068494294582E-07 0.99999999999998672
vn 0 -0.99999999999998672 -1.6292068494294582E-07
vn 0 -0.99999999999998672 -1.6292068494294582E-07
vn 0 -0.99999999999998672 -1.6292068494294582E-07
vn 0 -0.99999999999998672 -1.6292068494294582E-07
vn 1 0 0
vn 1 0 0
vn 1 0 0
vn 1 0 0
vn 0 0.99999999999998672 1.6292068494294582E-07
vn 0 0.99999999999998672 1.6292068494294582E-07
vn 0 0.99999999999998672 1.6292068494294582E-07
vn 0 0.99999999999998672 1.6292068494294582E-07
vn -1 0 0
vn -1 0 0
vn -1 0 0
vn -1 0 0
# 24 vertex normals

vt 0.125 1 0
vt 0.25 1 0
vt 0.125 0.81253224611282352 0
vt 0.125 0.82780671119689936 0
vt 0.25 1 0
vt 0.125 0.81253224611282352 0
vt 0.125 0.875 0
vt 0.25 0.875 0
vt 0.125 0.82780671119689936 0
vt 0.25 0.81253224611282352 0
vt 0.25 0.82780671119689936 0
vt 0 0.82780671119689936 0
vt 0 0.81253224611282352 0
vt 0.375 0.82780671119689936 0
vt 0.375 0.81253224611282352 0
vt 0.375 1 0
vt 0.5 0.82780671119689936 0
vt 0.5 0.81253224611282352 0
vt 0.375 0.875 0
vt 0.25 0.875 0
vt 0.375 0.82780671119689936 0
vt 0.375 0.81253224611282352 0
vt 0.25 0.82780671119689936 0
vt 0.25 0.81253224611282352 0
# 24 texture coords

g Magma Cube Layer 4
usemtl Magma Cube
s 8
f 25/90/85 27/89/86 28/93/87 26/94/88
f 29/78/89 30/82/90 32/83/91 31/81/92
f 25/74/93 26/88/94 30/91/95 29/92/96
f 26/87/97 28/86/98 32/95/99 30/96/100
f 28/77/101 27/73/102 31/79/103 32/80/104
f 27/84/105 25/85/106 29/75/107 31/76/108
#6 polygons


#
# object Magma Cube Layer 5
#

v -4 -0.99999934831720336 -4.00000043114153314
v 4 -0.99999934831720336 -4.00000043114153314
v -4 6.516826278613053E-07 -3.99999931454653184
v 4 6.516826278613053E-07 -3.99999931454653184
v -4 -1.00000065168268292 3.99999956885836032
v 4 -1.00000065168268292 3.99999956885836032
v -4 -6.516826962510436E-07 3.99999973177904528
v 4 -6.516826962510436E-07 3.99999973177904528
# 8 vertices

vn 0 1.1165950013491832E-06 -0.99999999999983136
vn 0 1.1165950013491832E-06 -0.99999999999983136
vn 0 1.1165950013491832E-06 -0.99999999999983136
vn 0 1.1165950013491832E-06 -0.99999999999983136
vn 0 -1.6292068494294582E-07 0.99999999999998672
vn 0 -1.6292068494294582E-07 0.99999999999998672
vn 0 -1.6292068494294582E-07 0.99999999999998672
vn 0 -1.6292068494294582E-07 0.99999999999998672
vn 0 -0.99999999999998672 -1.6292068494294582E-07
vn 0 -0.99999999999998672 -1.6292068494294582E-07
vn 0 -0.99999999999998672 -1.6292068494294582E-07
vn 0 -0.99999999999998672 -1.6292068494294582E-07
vn 1 0 0
vn 1 0 0
vn 1 0 0
vn 1 0 0
vn 0 0.99999999999998672 1.6292068494294582E-07
vn 0 0.99999999999998672 1.6292068494294582E-07
vn 0 0.99999999999998672 1.6292068494294582E-07
vn 0 0.99999999999998672 1.6292068494294582E-07
vn -1 0 0
vn -1 0 0
vn -1 0 0
vn -1 0 0
# 24 vertex normals

vt 0.125 1 0
vt 0.25 1 0
vt 0.125 0.7968828082084656 0
vt 0.125 0.81215727329254144 0
vt 0.25 1 0
vt 0.125 0.7968828082084656 0
vt 0.125 0.875 0
vt 0.25 0.875 0
vt 0.125 0.81215727329254144 0
vt 0.25 0.7968828082084656 0
vt 0.25 0.81215727329254144 0
vt 0 0.81215727329254144 0
vt 0 0.7968828082084656 0
vt 0.375 0.81215727329254144 0
vt 0.375 0.7968828082084656 0
vt 0.375 1 0
vt 0.5 0.81215727329254144 0
vt 0.5 0.7968828082084656 0
vt 0.375 0.875 0
vt 0.25 0.875 0
vt 0.375 0.81215727329254144 0
vt 0.375 0.7968828082084656 0
vt 0.25 0.81215727329254144 0
vt 0.25 0.7968828082084656 0
# 24 texture coords

g Magma Cube Layer 5
usemtl Magma Cube
s 16
f 33/114/109 35/113/110 36/117/111 34/118/112
f 37/102/113 38/106/114 40/107/115 39/105/116
f 33/98/117 34/112/118 38/115/119 37/116/120
f 34/111/121 36/110/122 40/119/123 38/120/124
f 36/101/125 35/97/126 39/103/127 40/104/128
f 35/108/129 33/109/130 37/99/131 39/100/132
#6 polygons


#
# object Magma Cube Layer 6
#

v -4 -1.99999934831720256 -4.00000051856432392
v 4 -1.99999934831720256 -4.00000051856432392
v -4 -0.9999993483173712 -3.99999940196932256
v 4 -0.9999993483173712 -3.99999940196932256
v -4 -2.00000065168268204 3.99999948143556944
v 4 -2.00000065168268204 3.99999948143556944
v -4 -1.00000065168269536 3.9999996443562544
v 4 -1.00000065168269536 3.9999996443562544
# 8 vertices

vn 0 1.1165950013491832E-06 -0.99999999999983136
vn 0 1.1165950013491832E-06 -0.99999999999983136
vn 0 1.1165950013491832E-06 -0.99999999999983136
vn 0 1.1165950013491832E-06 -0.99999999999983136
vn 0 -1.6292068494294582E-07 0.99999999999998672
vn 0 -1.6292068494294582E-07 0.99999999999998672
vn 0 -1.6292068494294582E-07 0.99999999999998672
vn 0 -1.6292068494294582E-07 0.99999999999998672
vn 0 -0.99999999999998672 -1.6292068494294582E-07
vn 0 -0.99999999999998672 -1.6292068494294582E-07
vn 0 -0.99999999999998672 -1.6292068494294582E-07
vn 0 -0.99999999999998672 -1.6292068494294582E-07
vn 1 0 0
vn 1 0 0
vn 1 0 0
vn 1 0 0
vn 0 0.99999999999998672 1.6292068494294582E-07
vn 0 0.99999999999998672 1.6292068494294582E-07
vn 0 0.99999999999998672 1.6292068494294582E-07
vn 0 0.99999999999998672 1.6292068494294582E-07
vn -1 0 0
vn -1 0 0
vn -1 0 0
vn -1 0 0
# 24 vertex normals

vt 0.125 1 0
vt 0.25 1 0
vt 0.125 0.78135919570922848 0
vt 0.125 0.79663366079330448 0
vt 0.25 1 0
vt 0.125 0.78135919570922848 0
vt 0.125 0.875 0
vt 0.25 0.875 0
vt 0.125 0.79663366079330448 0
vt 0.25 0.78135919570922848 0
vt 0.25 0.79663366079330448 0
vt 0 0.79663366079330448 0
vt 0 0.78135919570922848 0
vt 0.375 0.79663366079330448 0
vt 0.375 0.78135919570922848 0
vt 0.375 1 0
vt 0.5 0.79663366079330448 0
vt 0.5 0.78135919570922848 0
vt 0.375 0.875 0
vt 0.25 0.875 0
vt 0.375 0.79663366079330448 0
vt 0.375 0.78135919570922848 0
vt 0.25 0.79663366079330448 0
vt 0.25 0.78135919570922848 0
# 24 texture coords

g Magma Cube Layer 6
usemtl Magma Cube
s 32
f 41/138/133 43/137/134 44/141/135 42/142/136
f 45/126/137 46/130/138 48/131/139 47/129/140
f 41/122/141 42/136/142 46/139/143 45/140/144
f 42/135/145 44/134/146 48/143/147 46/144/148
f 44/125/149 43/121/150 47/127/151 48/128/152
f 43/132/153 41/133/154 45/123/155 47/124/156
#6 polygons


#
# object Magma Cube Layer 7
#

v -4 -2.99999934831725888 -4.00000025266669823
v 4 -2.99999934831725888 -4.00000025266669823
v -4 -1.99999934831742768 -3.99999913607169696
v 4 -1.99999934831742768 -3.99999913607169696
v -4 -3.00000065168273843 3.9999997473331952
v 4 -3.00000065168273843 3.9999997473331952
v -4 -2.00000065168275176 3.99999991025388016
v 4 -2.00000065168275176 3.99999991025388016
# 8 vertices

vn 0 1.1165950013491832E-06 -0.99999999999983136
vn 0 1.1165950013491832E-06 -0.99999999999983136
vn 0 1.1165950013491832E-06 -0.99999999999983136
vn 0 1.1165950013491832E-06 -0.99999999999983136
vn 0 -1.6292068494294582E-07 0.99999999999998672
vn 0 -1.6292068494294582E-07 0.99999999999998672
vn 0 -1.6292068494294582E-07 0.99999999999998672
vn 0 -1.6292068494294582E-07 0.99999999999998672
vn 0 -0.99999999999998672 -1.6292068494294582E-07
vn 0 -0.99999999999998672 -1.6292068494294582E-07
vn 0 -0.99999999999998672 -1.6292068494294582E-07
vn 0 -0.99999999999998672 -1.6292068494294582E-07
vn 1 0 0
vn 1 0 0
vn 1 0 0
vn 1 0 0
vn 0 0.99999999999998672 1.6292068494294582E-07
vn 0 0.99999999999998672 1.6292068494294582E-07
vn 0 0.99999999999998672 1.6292068494294582E-07
vn 0 0.99999999999998672 1.6292068494294582E-07
vn -1 0 0
vn -1 0 0
vn -1 0 0
vn -1 0 0
# 24 vertex normals

vt 0.125 1 0
vt 0.25 1 0
vt 0.125 0.76566314697265632 0
vt 0.125 0.78093761205673216 0
vt 0.25 1 0
vt 0.125 0.76566314697265632 0
vt 0.125 0.875 0
vt 0.25 0.875 0
vt 0.125 0.78093761205673216 0
vt 0.25 0.76566314697265632 0
vt 0.25 0.78093761205673216 0
vt 0 0.78093761205673216 0
vt 0 0.76566314697265632 0
vt 0.375 0.78093761205673216 0
vt 0.375 0.76566314697265632 0
vt 0.375 1 0
vt 0.5 0.78093761205673216 0
vt 0.5 0.76566314697265632 0
vt 0.375 0.875 0
vt 0.25 0.875 0
vt 0.375 0.78093761205673216 0
vt 0.375 0.76566314697265632 0
vt 0.25 0.78093761205673216 0
vt 0.25 0.76566314697265632 0
# 24 texture coords

g Magma Cube Layer 7
usemtl Magma Cube
s 64
f 49/162/157 51/161/158 52/165/159 50/166/160
f 53/150/161 54/154/162 56/155/163 55/153/164
f 49/146/165 50/160/166 54/163/167 53/164/168
f 50/159/169 52/158/170 56/167/171 54/168/172
f 52/149/173 51/145/174 55/151/175 56/152/176
f 51/156/177 49/157/178 53/147/179 55/148/180
#6 polygons


#
# object Magma Cube Layer 8
#

v -4 -3.99999934831722512 -4.00000053988202708
v 4 -3.99999934831722512 -4.00000053988202708
v -4 -2.99999934831739392 -3.99999942328702576
v 4 -2.99999934831739392 -3.99999942328702576
v -4 -4.00000065168270424 3.9999994601178664
v 4 -4.00000065168270424 3.9999994601178664
v -4 -3.00000065168271801 3.9999996230385512
v 4 -3.00000065168271801 3.9999996230385512
# 8 vertices

vn 0 1.1165950013491832E-06 -0.99999999999983136
vn 0 1.1165950013491832E-06 -0.99999999999983136
vn 0 1.1165950013491832E-06 -0.99999999999983136
vn 0 1.1165950013491832E-06 -0.99999999999983136
vn 0 -1.6292068494294582E-07 0.99999999999998672
vn 0 -1.6292068494294582E-07 0.99999999999998672
vn 0 -1.6292068494294582E-07 0.99999999999998672
vn 0 -1.6292068494294582E-07 0.99999999999998672
vn 0 -0.99999999999998672 -1.6292068494294582E-07
vn 0 -0.99999999999998672 -1.6292068494294582E-07
vn 0 -0.99999999999998672 -1.6292068494294582E-07
vn 0 -0.99999999999998672 -1.6292068494294582E-07
vn 1 0 0
vn 1 0 0
vn 1 0 0
vn 1 0 0
vn 0 0.99999999999998672 1.6292068494294582E-07
vn 0 0.99999999999998672 1.6292068494294582E-07
vn 0 0.99999999999998672 1.6292068494294582E-07
vn 0 0.99999999999998672 1.6292068494294582E-07
vn -1 0 0
vn -1 0 0
vn -1 0 0
vn -1 0 0
# 24 vertex normals

vt 0.125 1 0
vt 0.25 1 0
vt 0.125 0.75 0
vt 0.125 0.765274465084076 0
vt 0.25 1 0
vt 0.125 0.75 0
vt 0.125 0.875 0
vt 0.25 0.875 0
vt 0.125 0.765274465084076 0
vt 0.25 0.75 0
vt 0.25 0.765274465084076 0
vt 0 0.765274465084076 0
vt 0 0.75 0
vt 0.375 0.765274465084076 0
vt 0.375 0.75 0
vt 0.375 1 0
vt 0.5 0.765274465084076 0
vt 0.5 0.75 0
vt 0.375 0.875 0
vt 0.25 0.875 0
vt 0.375 0.765274465084076 0
vt 0.375 0.75 0
vt 0.25 0.765274465084076 0
vt 0.25 0.75 0
# 24 texture coords

g Magma Cube Layer 8
usemtl Magma Cube
s 128
f 57/186/181 59/185/182 60/189/183 58/190/184
f 61/174/185 62/178/186 64/179/187 63/177/188
f 57/170/189 58/184/190 62/187/191 61/188/192
f 58/183/193 60/182/194 64/191/195 62/192/196
f 60/173/197 59/169/198 63/175/199 64/176/200
f 59/180/201 57/181/202 61/171/203 63/172/204
#6 polygons


#
# object Magma Cube Layer 3
#

v -4 1.00000065168282858 -4.00000046491220828
v 4 1.00000065168282858 -4.00000046491220828
v -4 2.00000065168265983 -3.99999934831720688
v 4 2.00000065168265983 -3.99999934831720688
v -4 0.99999934831734912 3.99999953508768512
v 4 0.99999934831734912 3.99999953508768512
v -4 1.99999934831733568 3.99999969800837008
v 4 1.99999934831733568 3.99999969800837008
# 8 vertices

vn 0 1.1165950013491832E-06 -0.99999999999983136
vn 0 1.1165950013491832E-06 -0.99999999999983136
vn 0 1.1165950013491832E-06 -0.99999999999983136
vn 0 1.1165950013491832E-06 -0.99999999999983136
vn 0 -1.6292068494294582E-07 0.99999999999998672
vn 0 -1.6292068494294582E-07 0.99999999999998672
vn 0 -1.6292068494294582E-07 0.99999999999998672
vn 0 -1.6292068494294582E-07 0.99999999999998672
vn 0 -0.99999999999998672 -1.6292068494294582E-07
vn 0 -0.99999999999998672 -1.6292068494294582E-07
vn 0 -0.99999999999998672 -1.6292068494294582E-07
vn 0 -0.99999999999998672 -1.6292068494294582E-07
vn 1 0 0
vn 1 0 0
vn 1 0 0
vn 1 0 0
vn 0 0.99999999999998672 1.6292068494294582E-07
vn 0 0.99999999999998672 1.6292068494294582E-07
vn 0 0.99999999999998672 1.6292068494294582E-07
vn 0 0.99999999999998672 1.6292068494294582E-07
vn -1 0 0
vn -1 0 0
vn -1 0 0
vn -1 0 0
# 24 vertex normals

vt 0.125 1 0
vt 0.25 1 0
vt 0.125 0.828589916229248 0
vt 0.125 0.843864381313324 0
vt 0.25 1 0
vt 0.125 0.828589916229248 0
vt 0.125 0.875 0
vt 0.25 0.875 0
vt 0.125 0.843864381313324 0
vt 0.25 0.828589916229248 0
vt 0.25 0.843864381313324 0
vt 0 0.843864381313324 0
vt 0 0.828589916229248 0
vt 0.375 0.843864381313324 0
vt 0.375 0.828589916229248 0
vt 0.375 1 0
vt 0.5 0.843864381313324 0
vt 0.5 0.828589916229248 0
vt 0.375 0.875 0
vt 0.25 0.875 0
vt 0.375 0.843864381313324 0
vt 0.375 0.828589916229248 0
vt 0.25 0.843864381313324 0
vt 0.25 0.828589916229248 0
# 24 texture coords

g Magma Cube Layer 3
usemtl Magma Cube
s 256
f 65/210/205 67/209/206 68/213/207 66/214/208
f 69/198/209 70/202/210 72/203/211 71/201/212
f 65/194/213 66/208/214 70/211/215 69/212/216
f 66/207/217 68/206/218 72/215/219 70/216/220
f 68/197/221 67/193/222 71/199/223 72/200/224
f 67/204/225 65/205/226 69/195/227 71/196/228
#6 polygons

