# File produced by Open Asset Import Library (http://www.assimp.sf.net)
# (assimp v5.0.1588609223)

# 88 vertex positions
v  -4 -3.9999998 4
v  -4 -4 -3.9999998
v  4 -4 -3.9999998
v  4 -3.9999998 4
v  -4 4 4
v  4 4 4
v  4 4 -4.0000005
v  -4 4 -4.0000005
v  -3 -3.0000002 -3.9999998
v  -3 -3.0000005 -10
v  3 -3.0000005 -10
v  3 -3.0000002 -3.9999998
v  -3 3 -4.0000005
v  3 3 -4.0000005
v  3 2.9999995 -10
v  -3 2.9999995 -10
v  -5 -4.0000005 -10
v  -5 -4.000001 -22
v  5 -4.000001 -22
v  5 -4.0000005 -10
v  -5 3.9999995 -10
v  5 3.9999995 -10
v  5 3.999999 -22
v  -5 3.999999 -22
v  3.1275406 -0.18899488 -6.4497728
v  2.209631 0.68856382 -7.8193903
v  12.188935 -4.4480982 -17.798691
v  13.106845 -5.3256574 -16.429073
v  4.1790829 1.3309827 -6.1806107
v  14.158388 -3.8056796 -16.159912
v  13.240479 -2.9281204 -17.52953
v  3.2611737 2.2085414 -7.5502286
v  2.8646088 -0.17736912 -6.5611935
v  2.7555523 0.69167948 -8.1903191
v  16.387535 -4.444983 -11.842999
v  16.496592 -5.3140316 -10.213873
v  3.6331639 1.327868 -5.8096809
v  17.265146 -3.8087938 -9.4623594
v  17.15609 -2.9397452 -11.091485
v  3.5241075 2.1969171 -7.438807
v  2.6553102 -0.11323428 -6.5675035
v  3.3195624 0.4861064 -8.2036905
v  16.951546 -4.6505556 -4.5510125
v  16.287292 -5.2498965 -2.9148252
v  3.0691528 1.533442 -5.7963104
v  16.701136 -3.6032202 -2.1436317
v  17.365387 -3.0038795 -3.7798185
v  3.7334051 2.1327825 -7.4324975
v  2.5112257 -0.1133244 -6.8949628
v  3.9046898 0.48606348 -7.9799027
v  13.883992 -4.6505966 1.999396
v  12.490528 -5.2499847 3.084336
v  2.4840255 1.533483 -6.0200992
v  12.463327 -3.6031768 3.9592001
v  13.856792 -3.0037889 2.8742602
v  3.8774896 2.1328712 -7.1050391
v  -2.3168683 -0.1133244 -6.8949623
v  -12.296171 -5.2499847 3.0843375
v  -13.689636 -4.6505961 1.9993974
v  -3.7103324 0.48606396 -7.9799023
v  -2.2896681 1.533483 -6.0200982
v  -3.6831322 2.1328712 -7.1050382
v  -13.662436 -3.0037885 2.8742621
v  -12.268971 -3.6031771 3.9592021
v  -2.6702509 -0.17736959 -6.5611935
v  -16.302235 -5.3140316 -10.213873
v  -16.193176 -4.4449825 -11.842999
v  -2.5611944 0.69167948 -8.1903191
v  -3.4388061 1.327868 -5.8096809
v  -3.3297496 2.1969171 -7.438807
v  -16.961733 -2.9397449 -11.091485
v  -17.070789 -3.8087938 -9.4623594
v  -2.9331841 -0.18899488 -6.4497719
v  -12.912487 -5.3256578 -16.429073
v  -11.994577 -4.4480987 -17.798691
v  -2.0152736 0.68856382 -7.8193893
v  -3.9847264 1.3309827 -6.1806097
v  -3.0668159 2.2085423 -7.5502276
v  -13.04612 -2.9281206 -17.52953
v  -13.964029 -3.8056798 -16.159912
v  -2.4609523 -0.113235 -6.567503
v  -16.092936 -5.2498975 -2.9148247
v  -16.757187 -4.6505561 -4.551012
v  -3.1252046 0.4861064 -8.2036896
v  -2.874795 1.5334411 -5.7963095
v  -3.5390472 2.1327825 -7.4324965
v  -17.17103 -3.0038798 -3.7798181
v  -16.506779 -3.6032209 -2.143631

# 53 UV coordinates
vt 0.75 0.8125 0
vt 0.75 0.9375 0
vt 0.875 0.9375 0
vt 0.875 0.8125 0
vt 0.625 0.8125 0
vt 0.625 0.9375 0
vt 0.625 0.6875 0
vt 0.75 0.6875 0
vt 0.875 0.6875 0
vt 1 0.6875 0
vt 1 0.8125 0
vt 0.5 0.6875 0
vt 0.5 0.8125 0
vt 0.1875 0.90612 0
vt 0.1875 1 0
vt 0.28127843 1 0
vt 0.28127843 0.90612 0
vt 0.093862213 0.90612 0
vt 0.093862221 1 0
vt 0.093862221 0.8125 0
vt 0.1875 0.8125 0
vt 0.093862221 0.90612 0
vt 0.28127843 0.8125 0
vt 0.375 0.8125 0
vt 0.375 0.90612 0
vt 0 0.8125 0
vt 0 0.90612 0
vt 0.32810733 0.64060932 0
vt 0.32810733 0.8125 0
vt 0.45000002 0.8125 0
vt 0.44998521 0.64060932 0
vt 0.1875 0.64060932 0
vt 0.1875 0.5 0
vt 0.32810733 0.5 0
vt 0.51570231 0.5 0
vt 0.51570231 0.64060932 0
vt 0.65621871 0.5 0
vt 0.65621871 0.64060932 0
vt 0 0.5 0
vt 0 0.64060932 0
vt 0.5625 0.9687106 0
vt 0.5625 1 0
vt 0.8125 1 0
vt 0.8125 0.9687106 0
vt 0.3125 0.9375 0
vt 0.5625 0.9375 0
vt 0.3125 0.9687106 0
vt 0.8125 0.9375 0
vt 0.28121865 0.9687106 0
vt 0.28121865 0.9375 0
vt 0.3125 1 0
vt 0.84370708 0.9687106 0
vt 0.84370708 0.9375 0

# 148 vertex normals
vn 0 -1 4.3711388e-08
vn 0 1 -4.3711388e-08
vn 0 4.3711388e-08 1
vn 1 0 0
vn 0 -4.3711388e-08 -1
vn -1 0 -0
vn -0.5629971 -0.81379771 -0.14410977
vn -0.56299698 -0.81379765 -0.14410976
vn 0.56299698 0.81379771 0.14410977
vn 0.56299698 0.81379783 0.14410979
vn 0.56299692 0.81379771 0.14410979
vn 0.49145013 -0.46984616 0.7332949
vn 0.49145007 -0.46984613 0.7332949
vn 0.49145016 -0.46984616 0.7332949
vn 0.6644628 -0.34202066 -0.66446304
vn 0.6644628 -0.34202063 -0.66446304
vn -0.49145007 0.46984622 -0.7332949
vn -0.49145013 0.46984625 -0.73329484
vn -0.49145007 0.46984619 -0.73329484
vn -0.49145013 0.46984622 -0.73329479
vn -0.66446322 0.34202021 0.6644628
vn -0.66446322 0.34202021 0.66446275
vn -0.41551489 -0.81379789 -0.40630099
vn 0.41551489 0.81379783 0.40630105
vn 0.41551489 0.81379783 0.40630108
vn 0.41551492 0.81379783 0.40630108
vn 0.058960941 -0.46984619 0.880777
vn 0.058960948 -0.46984622 0.880777
vn 0.058960944 -0.46984619 0.88077706
vn 0.9076736 -0.34201989 -0.24320993
vn 0.90767354 -0.34201992 -0.24320993
vn -0.058960948 0.46984613 -0.880777
vn -0.058960944 0.46984613 -0.880777
vn -0.058960952 0.46984616 -0.88077706
vn -0.058960956 0.46984619 -0.88077706
vn -0.90767336 0.34202018 0.24321017
vn -0.90767336 0.34202018 0.24321015
vn -0.90767342 0.34202024 0.24321018
vn -0.90767348 0.34202021 0.24321018
vn -0.22192127 -0.88302231 -0.4135488
vn -0.22192127 -0.88302231 -0.41354883
vn -0.22192125 -0.88302225 -0.41354874
vn -0.22192125 -0.88302231 -0.41354877
vn 0.22192134 0.88302237 0.41354862
vn 0.22192132 0.88302225 0.41354856
vn 0.22192132 0.88302225 0.41354859
vn 0.22192131 0.88302231 0.41354859
vn -0.3562021 -0.32139364 0.87739742
vn -0.35620213 -0.32139367 0.87739742
vn -0.35620213 -0.32139364 0.87739742
vn 0.90767348 -0.3420198 0.24321043
vn 0.90767348 -0.3420198 0.24321042
vn 0.35620219 0.32139394 -0.8773973
vn 0.35620216 0.32139391 -0.87739724
vn 0.35620216 0.32139394 -0.8773973
vn -0.90767348 0.34202003 -0.24321038
vn -0.90767342 0.34202003 -0.24321035
vn -0.90767348 0.34202006 -0.24321038
vn -0.90767342 0.34202006 -0.24321036
vn 0.014584661 -0.88302243 -0.46910414
vn 0.014584661 -0.88302237 -0.46910417
vn -0.014584658 0.88302237 0.46910417
vn -0.014584657 0.88302237 0.46910414
vn -0.014584657 0.88302231 0.46910414
vn -0.01458466 0.88302243 0.4691042
vn -0.74717861 -0.32139352 0.58174759
vn -0.74717873 -0.32139355 0.58174759
vn -0.74717867 -0.32139352 0.58174759
vn -0.74717873 -0.32139352 0.58174759
vn 0.66446286 -0.34202015 0.66446316
vn 0.66446286 -0.34202012 0.66446316
vn 0.66446292 -0.34202018 0.66446322
vn 0.74717867 0.32139337 -0.58174765
vn 0.74717861 0.32139337 -0.58174771
vn 0.74717861 0.32139331 -0.58174765
vn -0.66446304 0.34202006 -0.66446304
vn -0.014584791 -0.88302231 -0.46910432
vn -0.014584791 -0.88302225 -0.46910429
vn -0.014584791 -0.88302231 -0.46910435
vn -0.014584792 -0.88302237 -0.46910432
vn 0.014584728 0.88302231 0.46910426
vn 0.014584729 0.88302237 0.46910432
vn 0.014584729 0.88302237 0.46910429
vn 0.74717861 -0.32139373 0.58174753
vn 0.74717867 -0.32139373 0.58174753
vn 0.74717861 -0.3213937 0.58174747
vn 0.74717867 -0.32139373 0.58174747
vn -0.66446292 -0.34202027 0.66446298
vn -0.66446292 -0.34202027 0.66446292
vn -0.66446298 -0.34202027 0.66446304
vn -0.66446298 -0.3420203 0.66446298
vn -0.74717855 0.32139391 -0.58174747
vn -0.74717855 0.32139388 -0.58174747
vn -0.74717861 0.32139394 -0.58174747
vn 0.66446304 0.34202027 -0.66446292
vn 0.66446304 0.34202027 -0.66446298
vn 0.66446304 0.3420203 -0.66446298
vn 0.66446298 0.34202027 -0.66446292
vn 0.41551489 -0.81379789 -0.40630099
vn 0.41551489 -0.81379783 -0.40630099
vn 0.41551489 -0.81379783 -0.40630096
vn -0.41551486 0.81379771 0.40630111
vn -0.41551489 0.81379771 0.40630111
vn -0.058960967 -0.46984613 0.880777
vn -0.058960963 -0.46984613 0.880777
vn -0.058960967 -0.4698461 0.880777
vn -0.9076733 -0.34202 -0.24321064
vn -0.90767336 -0.34202 -0.24321066
vn -0.90767324 -0.34201998 -0.24321063
vn 0.058960937 0.46984622 -0.88077694
vn 0.058960941 0.46984622 -0.88077694
vn 0.058960948 0.46984625 -0.880777
vn 0.90767342 0.34202012 0.2432102
vn 0.90767342 0.34202015 0.24321023
vn 0.56299698 -0.81379783 -0.14410955
vn 0.56299704 -0.81379783 -0.14410956
vn 0.56299698 -0.81379783 -0.14410956
vn -0.56299704 0.81379771 0.14410968
vn -0.56299704 0.81379771 0.1441097
vn -0.56299698 0.81379765 0.14410968
vn -0.49145019 -0.46984604 0.73329484
vn -0.49145025 -0.4698461 0.7332949
vn -0.49145022 -0.46984607 0.73329484
vn -0.66446304 -0.3420203 -0.66446286
vn -0.66446304 -0.34202036 -0.66446292
vn 0.49145022 0.46984589 -0.73329484
vn 0.49145025 0.46984595 -0.7332949
vn 0.49145025 0.46984592 -0.7332949
vn 0.6644631 0.34201983 0.66446316
vn 0.6644631 0.3420198 0.66446316
vn 0.6644631 0.34201986 0.66446316
vn 0.22192119 -0.88302225 -0.41354901
vn 0.22192118 -0.88302219 -0.41354898
vn 0.22192119 -0.88302225 -0.41354898
vn -0.22192119 0.88302225 0.41354889
vn -0.22192118 0.88302219 0.41354886
vn -0.22192118 0.88302219 0.41354883
vn 0.35620213 -0.32139382 0.87739724
vn 0.35620213 -0.32139385 0.87739724
vn 0.3562021 -0.32139382 0.87739724
vn 0.3562021 -0.32139385 0.87739724
vn -0.9076736 -0.34202 0.2432097
vn -0.9076736 -0.34202003 0.2432097
vn -0.3562021 0.32139376 -0.87739724
vn -0.35620213 0.32139376 -0.87739736
vn -0.35620213 0.32139379 -0.87739736
vn 0.90767342 0.34202003 -0.24321027
vn 0.90767348 0.34202003 -0.24321026

# Mesh 'Spider' with 66 faces
g Spider
f  1/1/1 2/2/1 3/3/1 4/4/1
f  5/5/2 6/1/2 7/2/2 8/6/2
f  1/7/3 4/8/3 6/1/3 5/5/3
f  4/8/4 3/9/4 7/4/4 6/1/4
f  3/9/5 2/10/5 8/11/5 7/4/5
f  2/12/6 1/7/6 5/5/6 8/13/6
f  9/14/1 10/15/1 11/16/1 12/17/1
f  13/18/2 14/14/2 15/15/2 16/19/2
f  9/20/3 12/21/3 14/14/3 13/22/3
f  12/21/4 11/23/4 15/17/4 14/14/4
f  11/23/5 10/24/5 16/25/5 15/17/5
f  10/26/6 9/20/6 13/18/6 16/27/6
f  17/28/1 18/29/1 19/30/1 20/31/1
f  21/32/2 22/28/2 23/29/2 24/21/2
f  17/33/3 20/34/3 22/28/3 21/32/3
f  20/34/4 19/35/4 23/36/4 22/28/4
f  19/35/5 18/37/5 24/38/5 23/36/5
f  18/39/6 17/33/6 21/32/6 24/40/6
f  25/41/7 26/42/8 27/43/7 28/44/7
f  29/45/9 30/46/10 31/41/10 32/47/11
f  25/46/12 28/48/13 30/44/14 29/41/12
f  28/49/15 27/50/16 31/45/15 30/47/16
f  27/42/17 26/51/18 32/47/19 31/41/20
f  26/48/21 25/44/22 29/52/21 32/53/21
f  33/41/23 34/42/23 35/43/23 36/44/23
f  37/45/24 38/46/25 39/41/24 40/47/26
f  33/46/27 36/48/28 38/44/29 37/41/27
f  36/49/30 35/50/31 39/45/30 38/47/31
f  35/42/32 34/51/33 40/47/34 39/41/35
f  34/48/36 33/44/37 37/52/38 40/53/39
f  41/41/40 42/42/41 43/43/42 44/44/43
f  45/45/44 46/46/45 47/41/46 48/47/47
f  41/46/48 44/48/48 46/44/49 45/41/50
f  44/49/51 43/50/52 47/45/51 46/47/51
f  43/42/53 42/51/54 48/47/55 47/41/54
f  42/48/56 41/44/57 45/52/58 48/53/59
f  49/41/60 50/42/61 51/43/60 52/44/61
f  53/45/62 54/46/63 55/41/64 56/47/65
f  49/46/66 52/48/67 54/44/68 53/41/69
f  52/49/70 51/50/71 55/45/71 54/47/72
f  51/42/73 50/51/74 56/47/75 55/41/75
f  50/48/76 49/44/76 53/52/76 56/53/76
f  57/41/77 58/44/78 59/43/79 60/42/80
f  61/45/81 62/47/82 63/41/81 64/46/83
f  57/46/84 61/41/85 64/44/86 58/48/87
f  58/49/88 64/47/89 63/45/90 59/50/91
f  59/42/92 63/41/92 62/47/93 60/51/94
f  60/48/95 62/53/96 61/52/97 57/44/98
f  65/41/99 66/44/100 67/43/101 68/42/101
f  69/45/102 70/47/103 71/41/102 72/46/103
f  65/46/104 69/41/104 72/44/105 66/48/106
f  66/49/107 72/47/108 71/45/108 67/50/109
f  67/42/110 71/41/111 70/47/112 68/51/112
f  68/48/113 70/53/113 69/52/113 65/44/114
f  73/41/115 74/44/116 75/43/115 76/42/117
f  77/45/118 78/47/119 79/41/118 80/46/120
f  73/46/121 77/41/122 80/44/123 74/48/121
f  74/49/124 80/47/125 79/45/124 75/50/125
f  75/42/126 79/41/127 78/47/127 76/51/128
f  76/48/129 78/53/130 77/52/130 73/44/131
f  81/41/132 82/44/133 83/43/133 84/42/134
f  85/45/135 86/47/135 87/41/136 88/46/137
f  81/46/138 85/41/139 88/44/140 82/48/141
f  82/49/142 88/47/143 87/45/142 83/50/143
f  83/42/144 87/41/145 86/47/145 84/51/146
f  84/48/147 86/53/148 85/52/148 81/44/148

